<?xml version="1.0" standalone="no"?>
<!DOCTYPE svg PUBLIC "-//W3C//DTD SVG 20010904//EN"
 "http://www.w3.org/TR/2001/REC-SVG-20010904/DTD/svg10.dtd">
<svg version="1.0" xmlns="http://www.w3.org/2000/svg"
 width="257.000000pt" height="257.000000pt" viewBox="0 0 257.000000 257.000000"
 preserveAspectRatio="xMidYMid meet">
<metadata>
Created by potrace 1.11, written by Peter Selinger 2001-2013
</metadata>
<g transform="translate(0.000000,257.000000) scale(0.100000,-0.100000)"
fill="#000000" stroke="none">
<path d="M915 2148 l1 -393 -119 -117 c-65 -65 -126 -122 -136 -128 -11 -5
-125 -9 -266 -9 -137 0 -252 -4 -256 -8 -13 -13 33 -131 88 -225 65 -110 192
-231 293 -281 19 -10 42 -21 50 -26 52 -28 80 -41 80 -36 0 3 16 -1 36 -10 31
-13 71 -19 184 -31 14 -1 27 -3 30 -4 11 -3 287 1 308 5 15 2 22 -1 22 -11 0
-8 -169 -183 -375 -389 -206 -206 -375 -380 -375 -385 0 -6 -3 -9 -7 -7 -5 3
-29 -18 -55 -44 l-47 -49 952 2 952 3 26 55 c39 81 97 258 104 314 3 27 8 53
12 59 18 29 18 365 0 395 -4 5 -9 27 -11 48 -2 22 -9 59 -16 84 -7 25 -14 56
-17 70 -2 14 -8 29 -14 35 -5 5 -9 19 -9 31 0 13 -4 25 -9 28 -5 3 -12 22 -15
41 -4 19 -11 35 -16 35 -6 0 -10 6 -10 13 0 16 -73 159 -101 198 -10 15 -19
31 -19 36 0 4 -16 26 -35 48 -19 22 -35 45 -35 52 0 6 -3 13 -7 15 -10 4 -59
67 -103 133 -19 28 -36 52 -40 55 -3 3 -13 16 -22 30 -10 14 -35 50 -58 80
-22 30 -60 85 -85 123 -25 37 -50 67 -55 67 -6 0 -10 6 -10 13 0 7 -13 28 -30
47 -16 19 -29 39 -30 43 0 4 -9 17 -20 29 -11 12 -20 28 -20 35 0 7 -4 13 -8
13 -4 0 -28 28 -52 63 -24 34 -47 64 -52 65 -4 2 -8 10 -8 18 0 8 -7 17 -15
20 -8 4 -15 10 -15 15 0 27 -93 139 -105 127 -3 -3 -8 -105 -5 -120 1 -11 1
-217 -1 -225 -1 -5 0 -12 1 -18 4 -23 1 -197 -4 -203 -6 -6 -46 32 -46 43 0 9
-53 79 -62 83 -5 2 -8 10 -8 18 0 8 -4 14 -8 14 -4 0 -16 14 -26 32 -11 17
-48 69 -83 115 -34 47 -63 86 -63 88 0 8 -113 160 -124 167 -6 4 -15 8 -21 8
-7 0 -10 -137 -10 -392z m340 -571 c30 -31 29 -104 -1 -134 -32 -32 -85 -39
-123 -17 -33 19 -41 33 -48 79 -5 35 25 81 61 95 32 13 89 1 111 -23z"/>
</g>
</svg>
